<svg width="14" height="14" viewBox="0 0 14 14" fill="none" xmlns="http://www.w3.org/2000/svg">
<mask id="mask0_15_424" style="mask-type:alpha" maskUnits="userSpaceOnUse" x="0" y="0" width="14" height="14">
<path d="M14 0H0V14H14V0Z" fill="white"/>
</mask>
<g mask="url(#mask0_15_424)">
<mask id="mask1_15_424" style="mask-type:alpha" maskUnits="userSpaceOnUse" x="0" y="0" width="14" height="14">
<path d="M14 0H0V14H14V0Z" fill="white"/>
</mask>
<g mask="url(#mask1_15_424)">
<path d="M13.7436 4.63138L9.36862 0.256375C9.20457 0.0922693 8.98205 4.95577e-05 8.75 0H1.53125C0.685964 0.000964389 0.000964389 0.685964 0 1.53125V12.6875C0 13.4124 0.587626 14 1.3125 14H12.6875C13.4124 14 14 13.4124 14 12.6875V5.25C14 5.01795 13.9077 4.79543 13.7436 4.63138ZM4.375 8.3125C4.375 8.55412 4.17912 8.75 3.9375 8.75H2.1875C1.94588 8.75 1.75 8.55412 1.75 8.3125C1.75 8.07088 1.94588 7.875 2.1875 7.875H3.9375C4.17912 7.875 4.375 8.07088 4.375 8.3125ZM13.125 7H0.875V1.53125C0.875 1.16881 1.16881 0.875 1.53125 0.875H8.75L13.125 5.25V7Z" fill="#444444"/>
</g>
</g>
</svg>
