<svg width="14" height="20" viewBox="0 0 14 20" fill="none" xmlns="http://www.w3.org/2000/svg">
  <g clip-path="url(#clip0_15_412)">
    <path d="M1.7083 0C2.59256 0.291667 2.87034 1.03646 2.71293 1.97917C2.63885 2.42708 2.60182 2.88021 2.54626 3.33333C2.4583 4.02083 2.05089 4.49479 1.44441 4.59896C1.3333 4.61979 1.27774 4.64583 1.29163 4.78125C1.30552 4.92188 1.25459 5.09896 1.31478 5.19792C1.37959 5.29688 1.537 5.19271 1.65274 5.19271C2.25922 5.19792 2.77774 5.63542 2.92126 6.30208C3.07867 7.01562 3.17589 7.73958 3.36571 8.44792C3.68978 9.65104 4.13885 10.7865 4.72219 11.8542C5.02774 12.4167 5.27311 12.9948 5.30552 13.6667C5.33793 14.3177 5.18515 14.8854 4.76385 15.3542C4.70367 15.4219 4.66663 15.4531 4.59719 15.3438C4.05552 14.4896 3.09719 14.3802 2.412 15.0885C2.39348 15.1042 2.37959 15.1198 2.35645 15.1406C2.31478 15.0938 2.31015 15.0365 2.29626 14.9844C1.61571 12.5 0.93515 10.0156 0.254594 7.53125C0.00922399 6.63021 0.231446 5.94792 0.93978 5.41667C0.986076 5.38021 1.01848 5.34896 1.01385 5.28125C1.00922 5.22917 1.00922 5.17708 1.01385 5.125C1.05552 4.78646 0.999965 4.56771 0.662002 4.41667C0.175891 4.1875 -0.0555908 3.58333 0.00922399 2.96354C0.0694092 2.39583 0.138854 1.82812 0.212928 1.26042C0.300891 0.614583 0.657372 0.1875 1.23145 0.03125C1.24996 0.0260417 1.26848 0.0104167 1.29163 0C1.43052 0 1.56941 0 1.7083 0Z" fill="#444444"/>
    <path d="M3.96287 20C3.62027 19.8698 3.36101 19.6458 3.28694 19.2187C3.28231 19.1979 3.27768 19.1823 3.27768 19.1615C3.23601 18.8333 3.24064 18.8229 3.53231 18.8229C6.2962 18.8229 9.06009 18.8229 11.824 18.8177C11.9953 18.8177 12.0369 18.8698 12.0277 19.0573C11.9999 19.5729 11.736 19.8542 11.324 20C8.87028 20 6.41657 20 3.96287 20Z" fill="#444444"/>
    <path d="M7.6157 18.5156C6.22681 18.5156 4.83792 18.5156 3.44903 18.5208C3.30551 18.5208 3.25459 18.4792 3.26848 18.3177C3.28236 18.1823 3.23607 18.0208 3.28236 17.9115C3.34255 17.7813 3.49996 17.8698 3.61107 17.849C4.43514 17.7031 4.98144 16.8229 4.80551 15.901C4.78237 15.7865 4.80551 15.724 4.88422 15.651C5.0694 15.4792 5.22218 15.2708 5.3194 15.026C5.37496 14.8958 5.4444 14.8333 5.57403 14.8177C6.56477 14.6771 7.55551 14.526 8.55088 14.375C9.37496 14.25 10.2037 14.1354 11.0277 14C12.0416 13.8281 12.8657 14.5052 12.9768 15.651C13.0509 16.4219 12.9814 17.1719 12.5833 17.8438C12.5138 17.9583 12.4398 18.0625 12.3564 18.1615C12.1574 18.401 11.9305 18.5313 11.6111 18.526C10.2777 18.5 8.9444 18.5156 7.6157 18.5156Z" fill="#444444"/>
    <path d="M4.56946 16.2344C4.56946 16.9531 4.05558 17.5365 3.41669 17.5417C2.7778 17.5417 2.26391 16.9635 2.25928 16.2396C2.25928 15.5208 2.77317 14.9323 3.41206 14.9323C4.04632 14.9271 4.56483 15.5156 4.56946 16.2344Z" fill="#444444"/>
  </g>
  <defs>
    <clipPath id="clip0_15_412">
      <rect width="14" height="20" fill="white"/>
    </clipPath>
  </defs>
</svg>
